HIERARCHY
ROOT Hips
{
	OFFSET 0.000000 0.000000 0.000000
	CHANNELS 6 Xposition Yposition Zposition Zrotation Xrotation Yrotation
	JOINT Spine
	{
		OFFSET 2.861115 16.234135 1.736458
		CHANNELS 3 Zrotation Xrotation Yrotation
		JOINT Chest
		{
			OFFSET 5.808929 32.960201 3.525536
			CHANNELS 3 Zrotation Xrotation Yrotation
			JOINT Neck
			{
				OFFSET -1.232910 4.833984 5.324554
				CHANNELS 3 Zrotation Xrotation Yrotation
				JOINT Head
				{
					OFFSET -2.064414 11.255276 16.058281
					CHANNELS 3 Zrotation Xrotation Yrotation
					End Site
					{
						OFFSET 0.0 5.0 0.0
					}
				}
			}
			JOINT LeftShoulder
			{
				OFFSET 13.891661 1.027679 8.944452
				CHANNELS 3 Zrotation Xrotation Yrotation
				JOINT LeftArm
				{
					OFFSET 0.579774 -3.420258 -2.283227
					CHANNELS 3 Zrotation Xrotation Yrotation
					JOINT LeftForeArm
					{
						OFFSET 7.316554 -26.592875 0.173700
						CHANNELS 3 Zrotation Xrotation Yrotation
						JOINT LeftHand
						{
							OFFSET 6.648290 3.155375 22.482550
							CHANNELS 3 Zrotation Xrotation Yrotation
							End Site
							{
								OFFSET 0.0 5.0 0.0
							}
						}
					}
				}
			}
			JOINT RightShoulder
			{
				OFFSET -14.815012 5.864799 -4.311090
				CHANNELS 3 Zrotation Xrotation Yrotation
				JOINT RightArm
				{
					OFFSET 0.343577 -3.472221 -2.350134
					CHANNELS 3 Zrotation Xrotation Yrotation
					JOINT RightForeArm
					{
						OFFSET -10.522768 -23.890854 -8.527178
						CHANNELS 3 Zrotation Xrotation Yrotation
						JOINT RightHand
						{
							OFFSET -18.224791 11.976790 9.151262
							CHANNELS 3 Zrotation Xrotation Yrotation
							End Site
							{
								OFFSET 0.0 5.0 0.0
							}
						}
					}
				}
			}
		}
	}
	JOINT LeftUpLeg
	{
		OFFSET 7.168579 -1.489258 3.640747
		CHANNELS 3 Zrotation Xrotation Yrotation
		JOINT LeftLeg
		{
			OFFSET -2.761841 -41.381836 -6.483459
			CHANNELS 3 Zrotation Xrotation Yrotation
			JOINT LeftFoot
			{
				OFFSET -2.114746 -38.626015 -8.431443
				CHANNELS 3 Zrotation Xrotation Yrotation
				End Site
				{
					OFFSET 0.0 5.0 0.0
				}
			}
		}
	}
	JOINT RightUpLeg
	{
		OFFSET -7.168579 1.489258 -3.640747
		CHANNELS 3 Zrotation Xrotation Yrotation
		JOINT RightLeg
		{
			OFFSET -5.444336 -40.722656 -8.618164
			CHANNELS 3 Zrotation Xrotation Yrotation
			JOINT RightFoot
			{
				OFFSET -2.843466 -37.694721 -11.417840
				CHANNELS 3 Zrotation Xrotation Yrotation
				End Site
				{
					OFFSET 0.0 5.0 0.0
				}
			}
		}
	}
}
MOTION
Frames: 14
Frame Time: 0.033333
17.960539 81.440529 -563.561279 -0.323306 0.345401 0.855136 0.285110 0.020813 -0.655021 3.380023 -0.509850 -1.713271 0.000008 -0.076933 -0.000000 -4.481325 0.266459 -0.243293 3.619928 -1.879843 -2.041847 0.000000 0.000000 0.000000 -0.447625 0.000000 -0.000001 -0.000004 -1.398817 0.000002 0.923724 -2.558119 -3.452506 -0.000000 0.000000 0.000000 -0.727390 0.000002 -0.000003 -0.000001 2.937525 -0.000000 -0.089679 0.491002 -0.323215 -0.440623 0.000623 0.013934 0.426587 0.544466 0.212929 -0.424151 1.156099 0.505001 0.732637 -0.001032 0.013945 0.576633 -1.614773 0.021616
17.967270 81.392380 -563.213440 -0.190616 0.315830 0.905169 0.093158 0.012767 -0.749343 3.401843 -0.511188 -1.532628 0.000007 -0.132891 0.000009 -4.697350 0.349133 -0.323062 3.206188 -1.791460 -2.247144 0.000000 0.000000 -0.000000 -0.335717 -0.000000 0.000004 0.000001 -2.126213 0.000007 1.006561 -2.642325 -3.051220 0.000000 0.000000 0.000000 -0.615487 -0.000000 0.000000 0.000004 2.769668 0.000001 0.349265 0.407055 -0.173498 -0.826617 0.001162 0.009787 0.398883 0.892675 0.120392 -0.352517 1.532090 0.297105 0.862024 -0.001216 0.009790 0.470888 -2.015778 -0.004865
17.932028 81.412506 -563.165344 -0.205002 0.297608 1.030440 0.084735 0.031953 -0.767921 3.555657 -0.470075 -1.532376 0.000008 -0.206323 0.000002 -4.881054 0.497001 -0.502063 3.528531 -1.289532 -2.353664 -0.000000 0.000000 0.000000 -0.503575 0.000002 -0.000003 0.000004 -1.426795 0.000004 0.997105 -1.656002 -3.337319 -0.000000 -0.000000 0.000000 -0.615486 0.000003 -0.000003 0.000001 3.469077 -0.000000 0.238844 0.379146 -0.212631 -0.686844 0.000969 0.012299 0.231512 0.757511 0.092673 -0.249997 1.155940 0.349512 0.582260 -0.000820 0.012297 0.469462 -1.797795 0.035555
18.004843 81.412994 -562.887695 -0.210873 0.319482 0.986990 0.084991 0.027144 -0.798467 3.607027 -0.514498 -1.399509 0.000001 -0.160864 0.000001 -4.897965 0.181875 -0.476646 3.504677 -0.721202 -2.005443 -0.000000 0.000000 -0.000000 -0.503574 0.000002 0.000001 -0.000001 -1.846445 0.000002 1.384847 -1.963661 -3.267362 0.000000 0.000000 -0.000000 -0.559531 0.000001 -0.000002 0.000001 4.000627 -0.000001 0.059145 0.328030 -0.246588 -0.572859 0.000806 0.009949 0.316058 0.682910 0.085356 -0.232748 1.328165 0.238799 0.764113 -0.001073 0.009956 0.580187 -1.867612 0.085073
17.964735 81.397835 -562.754150 -0.145435 0.321682 1.054397 0.135956 0.067565 -0.833243 3.389653 -0.473105 -1.466526 0.000006 -0.136382 0.000000 -5.006935 0.404789 -0.227717 3.450328 -0.249189 -2.366814 0.000000 0.000000 0.000000 -0.671433 0.000001 -0.000003 -0.000001 -2.014297 0.000002 0.804135 -1.103880 -2.918958 0.000000 -0.000000 -0.000000 0.223810 -0.000000 -0.000003 0.000001 2.713716 0.000004 0.106094 0.417219 -0.146239 -0.612866 0.000866 0.009678 0.348591 0.780651 0.116081 -0.403615 1.428179 0.256992 0.778101 -0.001092 0.009681 0.665199 -1.750540 0.046913
17.993622 81.409264 -562.839478 -0.161976 0.255415 1.122415 0.123466 0.076933 -0.793048 3.573898 -0.459995 -1.474299 0.000006 -0.167856 -0.000002 -4.825028 0.303668 -0.419794 3.308504 -0.923492 -2.365067 -0.000000 0.000000 -0.000000 -0.335711 0.000002 -0.000000 -0.000001 -1.846445 0.000001 0.827542 -1.372487 -3.155832 0.000000 0.000000 0.000000 0.335725 0.000003 -0.000003 -0.000001 2.853584 0.000001 0.162496 0.538934 -0.169884 -0.611111 0.000859 0.009185 0.268863 0.808318 0.111213 -0.419628 1.296974 0.272791 0.938965 -0.001320 0.009192 0.498015 -1.719690 0.018924
18.012598 81.343781 -562.143311 -0.200316 0.288666 0.889328 0.234804 0.085847 -0.796037 3.501870 -0.477963 -1.453699 0.000006 -0.167856 0.000001 -4.749542 0.219144 -0.364189 3.278489 -0.922594 -2.059539 0.000000 0.000000 0.000000 -0.167859 0.000001 -0.000002 -0.000001 -1.874415 -0.000000 0.865273 -1.845665 -3.354916 -0.000000 0.000000 0.000000 -0.000000 0.000001 -0.000002 0.000002 2.825621 -0.000000 0.204027 0.403377 -0.154450 -0.542591 0.000765 0.010332 0.406581 0.828735 0.160113 -0.449077 1.282097 0.254885 0.799081 -0.001125 0.010337 0.372987 -1.432303 -0.001817
17.977966 81.320206 -562.410889 -0.172430 0.245198 0.879583 0.093752 0.003825 -0.773406 3.370992 -0.477366 -1.654796 0.000005 0.090922 0.000006 -4.954556 0.035239 0.048954 3.392615 -1.330709 -1.943536 -0.000000 0.000000 -0.000000 -0.167859 0.000000 -0.000003 -0.000003 -1.790486 0.000003 1.036839 -1.539438 -3.379990 0.000000 -0.000000 0.000000 -0.167845 0.000002 -0.000001 0.000001 3.776821 -0.000001 0.663515 0.574307 -0.148818 -0.840823 0.001184 0.012193 0.369787 0.692043 0.162392 -0.267851 1.327078 0.130248 0.701162 -0.000985 0.012192 0.326667 -1.786839 0.024309
17.967501 81.377754 -562.813843 -0.176899 0.190043 1.374997 0.042084 -0.036352 -0.748740 3.551295 -0.501529 -1.297305 0.000008 -0.192336 0.000000 -5.018580 0.435239 -0.475484 3.270689 -1.108319 -2.419082 -0.000000 0.000000 0.000000 0.055951 0.000002 0.000005 0.000003 -1.650611 0.000002 0.889377 -0.806058 -3.308774 0.000000 0.000000 0.000000 0.895244 -0.000002 -0.000001 0.000003 3.525034 0.000002 0.526059 0.527782 -0.163870 -0.922132 0.001298 0.009575 0.412482 0.734415 0.187206 -0.338170 1.478389 0.306124 0.669686 -0.000947 0.009570 0.405864 -1.832413 -0.030916
17.993753 81.266525 -561.946106 -0.240156 0.205968 1.251329 0.028218 -0.078312 -0.694344 3.629180 -0.507393 -1.404605 0.000008 -0.038470 0.000004 -5.039637 0.147760 -0.249639 3.383687 -1.180456 -2.170059 0.000000 0.000000 -0.000000 0.335709 0.000001 0.000001 0.000002 -1.846442 0.000000 1.150501 -0.390020 -3.518626 0.000000 0.000000 -0.000000 0.111906 0.000002 -0.000003 0.000001 4.308370 0.000003 0.666052 0.454543 -0.192453 -0.960377 0.001354 0.012580 0.365297 0.826324 0.130564 -0.055637 1.394828 0.160286 0.592756 -0.000840 0.012576 0.373661 -1.586889 0.064782
18.015905 81.226662 -562.106750 -0.199105 0.188789 1.045255 -0.011385 -0.130680 -0.698983 3.566921 -0.485315 -1.388836 0.000005 0.076936 0.000002 -5.183580 -0.014474 -0.032759 3.366442 -1.048499 -2.208467 0.000000 0.000000 -0.000000 -0.223817 -0.000003 0.000002 0.000000 -1.846445 0.000004 0.837167 -2.328933 -3.066852 -0.000000 -0.000000 0.000000 -0.055952 0.000000 -0.000001 0.000000 2.741696 0.000001 0.901347 0.194472 -0.096053 -1.162336 0.001639 0.012642 0.428034 0.899614 0.181896 0.002813 1.329029 0.052335 0.526311 -0.000740 0.012629 0.383304 -1.362609 0.094449
18.067472 81.248451 -561.830994 -0.204480 0.230664 1.072868 0.004582 -0.099158 -0.626100 3.209371 -0.456609 -1.353845 0.000010 -0.003495 0.000003 -5.267650 0.088774 -0.217951 3.137304 -1.220999 -2.205849 0.000000 0.000000 -0.000000 -0.335712 0.000001 0.000003 0.000003 -1.818464 0.000002 0.468478 -2.247999 -3.010470 -0.000000 -0.000000 0.000000 0.055952 -0.000000 -0.000003 0.000002 2.266091 0.000001 0.774571 0.203961 -0.066971 -1.161463 0.001634 0.013190 0.491118 0.868184 0.151645 0.066633 1.283643 -0.063217 0.477352 -0.000673 0.013171 0.473852 -1.445735 0.050016
18.134079 81.294174 -562.431641 -0.266859 0.209492 0.835690 0.082513 -0.063582 -0.627675 3.440262 -0.376779 -1.370525 0.000011 0.017487 0.000006 -5.024365 0.000717 -0.218577 3.405076 -1.099127 -2.200397 -0.000000 0.000000 0.000000 -0.391663 0.000001 0.000002 -0.000003 -1.566684 0.000003 0.375651 -2.087430 -3.754842 -0.000000 0.000000 -0.000000 0.391675 0.000000 -0.000000 0.000002 1.762510 0.000001 0.513511 0.221178 -0.143255 -1.046491 0.001469 0.013619 0.427359 0.745997 0.185585 -0.193796 1.533353 0.122322 0.564776 -0.000798 0.013610 0.442076 -1.613296 0.084733
18.237743 81.319664 -562.646362 -0.351520 0.258805 0.651657 0.156561 -0.039547 -0.533941 3.406019 -0.308441 -1.220489 0.000007 -0.059447 0.000003 -4.752069 0.049931 -0.331542 3.131180 -1.121851 -2.389090 -0.000000 0.000000 0.000000 -0.335714 0.000000 0.000006 0.000002 -1.566679 -0.000001 0.545214 -1.334562 -3.582627 -0.000000 0.000000 0.000000 0.223814 0.000002 -0.000003 0.000001 2.070258 -0.000001 0.367564 0.531857 -0.163289 -0.702882 0.000992 0.012629 0.253753 0.570975 0.114292 -0.448748 1.673089 0.191572 0.757118 -0.001064 0.012630 0.345891 -1.405349 0.011950
